<svg xmlns="http://www.w3.org/2000/svg" viewBox="0 0 100 100" width="100" height="100">
  <circle cx="50" cy="50" r="8" fill="#e87a9f"/>
  <ellipse cx="50" cy="28" rx="8" ry="12" fill="#e87a9f" opacity="0.85"/>
  <ellipse cx="50" cy="72" rx="8" ry="12" fill="#e87a9f" opacity="0.85"/>
  <ellipse cx="28" cy="50" rx="12" ry="8" fill="#e87a9f" opacity="0.85"/>
  <ellipse cx="72" cy="50" rx="12" ry="8" fill="#e87a9f" opacity="0.85"/>
  <ellipse cx="33" cy="33" rx="8" ry="12" fill="#e87a9f" opacity="0.75" transform="rotate(-45 33 33)"/>
  <ellipse cx="67" cy="33" rx="8" ry="12" fill="#e87a9f" opacity="0.75" transform="rotate(45 67 33)"/>
  <ellipse cx="33" cy="67" rx="8" ry="12" fill="#e87a9f" opacity="0.75" transform="rotate(45 33 67)"/>
  <ellipse cx="67" cy="67" rx="8" ry="12" fill="#e87a9f" opacity="0.75" transform="rotate(-45 67 67)"/>
  <circle cx="50" cy="50" r="7" fill="#f5c842"/>
  <path d="M50,65 Q48,80 50,90" stroke="#5a8a4a" stroke-width="2" fill="none" stroke-linecap="round"/>
  <path d="M50,78 Q42,74 38,76" stroke="#5a8a4a" stroke-width="1.5" fill="none" stroke-linecap="round"/>
</svg>
